<svg xmlns="http://www.w3.org/2000/svg" xmlns:svg="http://www.w3.org/2000/svg" xmlns:xlink="http://www.w3.org/1999/xlink" id="svg2" width="512" height="512" version="1.1"><defs id="defs4"><linearGradient id="linearGradient3835"><stop style="stop-color:#f0f0f0;stop-opacity:1" id="stop3837" offset="0"/><stop style="stop-color:#a0a0a0;stop-opacity:1" id="stop3839" offset="1"/></linearGradient><filter id="filter3790"><feGaussianBlur id="feGaussianBlur3792" stdDeviation="1.296"/></filter><filter id="filter3795"><feGaussianBlur id="feGaussianBlur3797" stdDeviation="10.017"/></filter><linearGradient id="linearGradient3841" x1="0" x2="512" y1="796.362" y2="796.362" gradientUnits="userSpaceOnUse" xlink:href="#linearGradient3835"/><clipPath id="clipPath3882" clipPathUnits="userSpaceOnUse"><g style="display:inline" id="g3884" transform="translate(6.9304688e-6,-1.0148574e-5)"><flowRoot style="font-size:144px;font-style:normal;font-weight:700;text-align:center;line-height:125%;letter-spacing:0;word-spacing:0;text-anchor:middle;fill:#000;fill-opacity:1;stroke:none;font-family:Sans;-inkscape-font-specification:Sans Bold" id="flowRoot3886" transform="matrix(2.4779189,0,0,2.8297064,-320.48397,162.92621)" xml:space="preserve"><flowRegion id="flowRegion3888"><rect id="rect3890" width="356" height="286" x="64" y="119.333"/></flowRegion><flowPara id="flowPara3892">JS</flowPara></flowRoot><path id="path3894" d="m 410,427 c 0,19.32997 -13.43146,35 -30,35 -16.56854,0 -30,-15.67003 -30,-35 0,-19.32997 13.43146,-35 30,-35 16.56854,0 30,15.67003 30,35 z" transform="matrix(0.85546491,0,0,0.73325563,90.923339,643.26204)" style="opacity:.9;fill:#000;fill-opacity:1;fill-rule:nonzero;stroke:none"/></g></clipPath></defs><metadata id="metadata7"/><g style="display:inline" id="g3763" transform="translate(0,-540.36218)"><g id="g3843" clip-path="url(#clipPath3882)"><rect id="rect3833" width="512" height="512" x="0" y="540.362" style="opacity:.9;fill:url(#linearGradient3841);fill-opacity:1;fill-rule:nonzero;stroke:none"/><g id="g3766"><path id="path3770" d="m 410,427 c 0,19.32997 -13.43146,35 -30,35 -8.28427,0 -15.78427,-3.91751 -21.2132,-10.25126 C 353.35786,445.41498 350,436.66498 350,427 c 0,-19.32997 13.43146,-35 30,-35 8.28427,0 15.78427,3.91751 21.2132,10.25126 C 406.64213,408.58501 410,417.33501 410,427 z m -229.86375,-43.64101 0,-133.31982 c 19.41607,13.74817 38.15327,24.14963 56.21168,31.20445 18.194,6.8741 35.70921,10.31109 52.54567,10.31102 17.10777,7e-5 30.21022,-3.79872 39.30747,-11.3964 9.09687,-7.59751 13.64539,-18.45123 13.64557,-32.56114 -1.8e-4,-12.66255 -3.12307,-22.43091 -9.36861,-29.30504 -6.11015,-6.87387 -18.39795,-13.0243 -36.86344,-18.45132 l -30.34617,-8.95431 c -30.41415,-8.68281 -52.68153,-22.52127 -66.80229,-41.51549 -13.98504,-18.99376 -20.97755,-44.59043 -20.97752,-76.790018 -3e-5,-40.339328 9.77588,-71.3628611 29.32783,-93.070639 19.55179,-21.707054 47.65762,-32.560731 84.31749,-32.561154 16.70042,4.23e-4 64.74566,10.733546 82.39683,14.170151 17.65081,3.256504 35.91279,8.231113 54.78604,14.923827 m -459.788987,516.418353 0,-100.78126 12.219928,0 c 16.2932387,-3e-5 28.5810344,-6.06002 36.863444,-18.17998 8.418148,-12.12 12.627251,-29.93817 12.627274,-53.45455 l 0,-365.770269 0,0 87.915611,0" transform="matrix(0.85546491,0,0,0.73325563,90.923339,643.26204)" style="opacity:.9;fill:none;stroke:#000;stroke-width:20.20185089;stroke-miterlimit:4;stroke-opacity:1;filter:url(#filter3795)"/></g></g></g></svg>